# xmcd CD database file
#
# Track frame offsets:
#	150
#	22387
#	48732
#	75542
#	94572
#	117827
#	146350
#	175212
#	200430
#	225590
#
# Disc length: 3341 seconds
#
# Revision: 0
# Processed by: cddbd v1.5.1PL0 Copyright (c) Steve Scherf et al.
# Submitted via: CDex 1.51
#
DISCID=800d0b0a
DTITLE=Super Blue - Super Blue 2 The 50th Year
DYEAR=1989
DGENRE=Jazz
TTITLE0=Flight To Jordan
TTITLE1=Nica's Dream
TTITLE2='Round Midnight
TTITLE3=Take Your Pick
TTITLE4=Blue Minor
TTITLE5=Autumn Leaves
TTITLE6=Blue Bossa
TTITLE7=Desert Moonlight
TTITLE8=Low Tide
TTITLE9=Cool Struttin'
EXTD=YEAR: 1989
EXTT0=
EXTT1=
EXTT2=
EXTT3=
EXTT4=
EXTT5=
EXTT6=
EXTT7=
EXTT8=
EXTT9=
PLAYORDER=
